<mxfile host="app.diagrams.net" modified="2022-04-30T19:34:23.457Z" agent="5.0 (Windows NT 10.0; Win64; x64) AppleWebKit/537.36 (KHTML, like Gecko) Chrome/100.0.4896.127 Safari/537.36" etag="1cUHgSxnhejdGw5nhDO3" version="17.5.0" type="github">
  <diagram id="R2lEEEUBdFMjLlhIrx00" name="Page-1">
    <mxGraphModel dx="2318" dy="780" grid="1" gridSize="10" guides="1" tooltips="1" connect="1" arrows="1" fold="1" page="1" pageScale="1" pageWidth="850" pageHeight="1100" math="0" shadow="0" extFonts="Permanent Marker^https://fonts.googleapis.com/css?family=Permanent+Marker">
      <root>
        <mxCell id="0" />
        <mxCell id="1" parent="0" />
        <mxCell id="Zq8NNb_9Jvs74_mtogGU-2" value="" style="ellipse;whiteSpace=wrap;html=1;fillColor=#1A1A1A;fontSize=23;direction=east;" vertex="1" parent="1">
          <mxGeometry x="10" y="60" width="10" height="10" as="geometry" />
        </mxCell>
        <mxCell id="Zq8NNb_9Jvs74_mtogGU-6" value="1" style="text;html=1;strokeColor=none;fillColor=none;align=center;verticalAlign=middle;whiteSpace=wrap;rounded=0;fontSize=23;" vertex="1" parent="1">
          <mxGeometry x="540" y="100" width="20" height="30" as="geometry" />
        </mxCell>
        <mxCell id="Zq8NNb_9Jvs74_mtogGU-14" value="" style="endArrow=none;html=1;rounded=0;fontSize=23;entryX=0;entryY=0.5;entryDx=0;entryDy=0;exitX=1;exitY=1;exitDx=0;exitDy=0;" edge="1" parent="1" source="Zq8NNb_9Jvs74_mtogGU-2" target="Zq8NNb_9Jvs74_mtogGU-5">
          <mxGeometry width="50" height="50" relative="1" as="geometry">
            <mxPoint x="20" y="70" as="sourcePoint" />
            <mxPoint x="255" y="165" as="targetPoint" />
          </mxGeometry>
        </mxCell>
        <mxCell id="Zq8NNb_9Jvs74_mtogGU-17" value="" style="ellipse;whiteSpace=wrap;html=1;fillColor=#1A1A1A;fontSize=23;" vertex="1" parent="1">
          <mxGeometry x="330" y="200" width="10" height="10" as="geometry" />
        </mxCell>
        <mxCell id="Zq8NNb_9Jvs74_mtogGU-18" value="" style="endArrow=none;html=1;rounded=0;fontSize=23;exitX=1;exitY=1;exitDx=0;exitDy=0;" edge="1" parent="1" source="Zq8NNb_9Jvs74_mtogGU-2" target="Zq8NNb_9Jvs74_mtogGU-17">
          <mxGeometry width="50" height="50" relative="1" as="geometry">
            <mxPoint x="20" y="70" as="sourcePoint" />
            <mxPoint x="330" y="200" as="targetPoint" />
          </mxGeometry>
        </mxCell>
        <mxCell id="Zq8NNb_9Jvs74_mtogGU-21" value="2" style="text;html=1;strokeColor=none;fillColor=none;align=center;verticalAlign=middle;whiteSpace=wrap;rounded=0;fontSize=23;" vertex="1" parent="1">
          <mxGeometry x="340" y="180" width="20" height="30" as="geometry" />
        </mxCell>
        <mxCell id="Zq8NNb_9Jvs74_mtogGU-28" value="" style="endArrow=none;html=1;rounded=0;fontSize=23;exitX=1;exitY=1;exitDx=0;exitDy=0;entryX=0;entryY=0;entryDx=0;entryDy=0;" edge="1" parent="1" source="Zq8NNb_9Jvs74_mtogGU-2" target="Zq8NNb_9Jvs74_mtogGU-27">
          <mxGeometry width="50" height="50" relative="1" as="geometry">
            <mxPoint x="20" y="70" as="sourcePoint" />
            <mxPoint x="330" y="200" as="targetPoint" />
          </mxGeometry>
        </mxCell>
        <mxCell id="Zq8NNb_9Jvs74_mtogGU-29" value="3" style="text;html=1;strokeColor=none;fillColor=none;align=center;verticalAlign=middle;whiteSpace=wrap;rounded=0;fontSize=23;" vertex="1" parent="1">
          <mxGeometry x="230" y="220" width="20" height="30" as="geometry" />
        </mxCell>
        <mxCell id="Zq8NNb_9Jvs74_mtogGU-32" value="" style="ellipse;whiteSpace=wrap;html=1;fillColor=#1A1A1A;fontSize=23;" vertex="1" parent="1">
          <mxGeometry x="145" y="270" width="10" height="10" as="geometry" />
        </mxCell>
        <mxCell id="Zq8NNb_9Jvs74_mtogGU-33" value="" style="endArrow=none;html=1;rounded=0;fontSize=23;exitX=1;exitY=1;exitDx=0;exitDy=0;entryX=0;entryY=0;entryDx=0;entryDy=0;" edge="1" parent="1" source="Zq8NNb_9Jvs74_mtogGU-2" target="Zq8NNb_9Jvs74_mtogGU-32">
          <mxGeometry width="50" height="50" relative="1" as="geometry">
            <mxPoint x="20" y="70" as="sourcePoint" />
            <mxPoint x="330" y="200" as="targetPoint" />
          </mxGeometry>
        </mxCell>
        <mxCell id="Zq8NNb_9Jvs74_mtogGU-34" value="5" style="text;html=1;strokeColor=none;fillColor=none;align=center;verticalAlign=middle;whiteSpace=wrap;rounded=0;fontSize=23;" vertex="1" parent="1">
          <mxGeometry x="154" y="255" width="20" height="30" as="geometry" />
        </mxCell>
        <mxCell id="Zq8NNb_9Jvs74_mtogGU-35" value="" style="ellipse;whiteSpace=wrap;html=1;fillColor=#1A1A1A;fontSize=23;" vertex="1" parent="1">
          <mxGeometry x="30" y="322" width="10" height="10" as="geometry" />
        </mxCell>
        <mxCell id="Zq8NNb_9Jvs74_mtogGU-36" value="" style="endArrow=none;html=1;rounded=0;fontSize=23;exitX=1;exitY=1;exitDx=0;exitDy=0;entryX=0.5;entryY=0;entryDx=0;entryDy=0;" edge="1" parent="1" source="Zq8NNb_9Jvs74_mtogGU-2" target="Zq8NNb_9Jvs74_mtogGU-35">
          <mxGeometry width="50" height="50" relative="1" as="geometry">
            <mxPoint x="20" y="70" as="sourcePoint" />
            <mxPoint x="330" y="200" as="targetPoint" />
          </mxGeometry>
        </mxCell>
        <mxCell id="Zq8NNb_9Jvs74_mtogGU-37" value="13" style="text;html=1;strokeColor=none;fillColor=none;align=center;verticalAlign=middle;whiteSpace=wrap;rounded=0;fontSize=23;" vertex="1" parent="1">
          <mxGeometry x="40" y="302" width="20" height="30" as="geometry" />
        </mxCell>
        <mxCell id="Zq8NNb_9Jvs74_mtogGU-38" value="" style="endArrow=none;html=1;rounded=0;fontSize=23;exitX=1;exitY=1;exitDx=0;exitDy=0;entryX=0.5;entryY=0;entryDx=0;entryDy=0;" edge="1" parent="1" source="Zq8NNb_9Jvs74_mtogGU-2" target="Zq8NNb_9Jvs74_mtogGU-39">
          <mxGeometry width="50" height="50" relative="1" as="geometry">
            <mxPoint x="18.535533905932652" y="68.53553390593265" as="sourcePoint" />
            <mxPoint x="-10" y="260" as="targetPoint" />
          </mxGeometry>
        </mxCell>
        <mxCell id="Zq8NNb_9Jvs74_mtogGU-40" value="21" style="text;html=1;strokeColor=none;fillColor=none;align=center;verticalAlign=middle;whiteSpace=wrap;rounded=0;fontSize=23;" vertex="1" parent="1">
          <mxGeometry x="-10" y="375" width="20" height="30" as="geometry" />
        </mxCell>
        <mxCell id="Zq8NNb_9Jvs74_mtogGU-39" value="" style="ellipse;whiteSpace=wrap;html=1;fillColor=#1A1A1A;fontSize=23;" vertex="1" parent="1">
          <mxGeometry x="-30" y="390" width="10" height="10" as="geometry" />
        </mxCell>
        <mxCell id="Zq8NNb_9Jvs74_mtogGU-27" value="" style="ellipse;whiteSpace=wrap;html=1;fillColor=#1A1A1A;fontSize=23;" vertex="1" parent="1">
          <mxGeometry x="220" y="240" width="10" height="10" as="geometry" />
        </mxCell>
        <mxCell id="Zq8NNb_9Jvs74_mtogGU-5" value="" style="ellipse;whiteSpace=wrap;html=1;fillColor=#1A1A1A;fontSize=23;" vertex="1" parent="1">
          <mxGeometry x="530" y="120" width="10" height="10" as="geometry" />
        </mxCell>
        <mxCell id="Zq8NNb_9Jvs74_mtogGU-51" value="" style="ellipse;whiteSpace=wrap;html=1;fillColor=#1A1A1A;fontSize=23;" vertex="1" parent="1">
          <mxGeometry x="80" y="290" width="10" height="10" as="geometry" />
        </mxCell>
        <mxCell id="Zq8NNb_9Jvs74_mtogGU-52" value="" style="endArrow=none;html=1;rounded=0;fontSize=23;exitX=1;exitY=1;exitDx=0;exitDy=0;entryX=0.5;entryY=0;entryDx=0;entryDy=0;" edge="1" parent="1" source="Zq8NNb_9Jvs74_mtogGU-2" target="Zq8NNb_9Jvs74_mtogGU-51">
          <mxGeometry width="50" height="50" relative="1" as="geometry">
            <mxPoint x="20" y="70" as="sourcePoint" />
            <mxPoint x="330" y="200" as="targetPoint" />
          </mxGeometry>
        </mxCell>
        <mxCell id="Zq8NNb_9Jvs74_mtogGU-53" value="8" style="text;html=1;strokeColor=none;fillColor=none;align=center;verticalAlign=middle;whiteSpace=wrap;rounded=0;fontSize=23;" vertex="1" parent="1">
          <mxGeometry x="90" y="271" width="20" height="30" as="geometry" />
        </mxCell>
        <mxCell id="Zq8NNb_9Jvs74_mtogGU-56" value="" style="ellipse;whiteSpace=wrap;html=1;fillColor=#1A1A1A;fontSize=23;" vertex="1" parent="1">
          <mxGeometry x="90" y="390" width="10" height="10" as="geometry" />
        </mxCell>
        <mxCell id="Zq8NNb_9Jvs74_mtogGU-57" value="" style="endArrow=none;html=1;rounded=0;fontSize=23;exitX=0.5;exitY=1;exitDx=0;exitDy=0;entryX=0.5;entryY=0;entryDx=0;entryDy=0;" edge="1" parent="1" source="Zq8NNb_9Jvs74_mtogGU-51" target="Zq8NNb_9Jvs74_mtogGU-56">
          <mxGeometry width="50" height="50" relative="1" as="geometry">
            <mxPoint x="28.535533905932652" y="78.53553390593265" as="sourcePoint" />
            <mxPoint x="95" y="300" as="targetPoint" />
          </mxGeometry>
        </mxCell>
        <mxCell id="Zq8NNb_9Jvs74_mtogGU-58" value="29" style="text;html=1;strokeColor=none;fillColor=none;align=center;verticalAlign=middle;whiteSpace=wrap;rounded=0;fontSize=23;" vertex="1" parent="1">
          <mxGeometry x="105" y="375" width="20" height="30" as="geometry" />
        </mxCell>
        <mxCell id="Zq8NNb_9Jvs74_mtogGU-61" value="18" style="text;html=1;strokeColor=none;fillColor=none;align=center;verticalAlign=middle;whiteSpace=wrap;rounded=0;fontSize=23;" vertex="1" parent="1">
          <mxGeometry x="185" y="345" width="20" height="30" as="geometry" />
        </mxCell>
        <mxCell id="Zq8NNb_9Jvs74_mtogGU-62" value="" style="endArrow=none;html=1;rounded=0;fontSize=23;entryX=0.5;entryY=0;entryDx=0;entryDy=0;" edge="1" parent="1" target="Zq8NNb_9Jvs74_mtogGU-63">
          <mxGeometry width="50" height="50" relative="1" as="geometry">
            <mxPoint x="150" y="280" as="sourcePoint" />
            <mxPoint x="180" y="380" as="targetPoint" />
          </mxGeometry>
        </mxCell>
        <mxCell id="Zq8NNb_9Jvs74_mtogGU-63" value="" style="ellipse;whiteSpace=wrap;html=1;fillColor=#1A1A1A;fontSize=23;" vertex="1" parent="1">
          <mxGeometry x="175" y="360" width="10" height="10" as="geometry" />
        </mxCell>
        <mxCell id="Zq8NNb_9Jvs74_mtogGU-64" value="" style="ellipse;whiteSpace=wrap;html=1;fillColor=#1A1A1A;fontSize=23;" vertex="1" parent="1">
          <mxGeometry x="145" y="390" width="10" height="10" as="geometry" />
        </mxCell>
        <mxCell id="Zq8NNb_9Jvs74_mtogGU-71" value="" style="endArrow=none;html=1;rounded=0;fontSize=23;entryX=0.5;entryY=0;entryDx=0;entryDy=0;" edge="1" parent="1" target="Zq8NNb_9Jvs74_mtogGU-64">
          <mxGeometry width="50" height="50" relative="1" as="geometry">
            <mxPoint x="150" y="280" as="sourcePoint" />
            <mxPoint x="180" y="380" as="targetPoint" />
          </mxGeometry>
        </mxCell>
        <mxCell id="Zq8NNb_9Jvs74_mtogGU-72" value="26" style="text;html=1;strokeColor=none;fillColor=none;align=center;verticalAlign=middle;whiteSpace=wrap;rounded=0;fontSize=23;" vertex="1" parent="1">
          <mxGeometry x="790" y="1050" width="20" height="30" as="geometry" />
        </mxCell>
        <mxCell id="Zq8NNb_9Jvs74_mtogGU-74" value="" style="ellipse;whiteSpace=wrap;html=1;fillColor=#1A1A1A;fontSize=23;" vertex="1" parent="1">
          <mxGeometry x="295" y="320" width="10" height="10" as="geometry" />
        </mxCell>
        <mxCell id="Zq8NNb_9Jvs74_mtogGU-75" value="" style="ellipse;whiteSpace=wrap;html=1;fillColor=#1A1A1A;fontSize=23;" vertex="1" parent="1">
          <mxGeometry x="280" y="370" width="10" height="10" as="geometry" />
        </mxCell>
        <mxCell id="Zq8NNb_9Jvs74_mtogGU-76" value="" style="ellipse;whiteSpace=wrap;html=1;fillColor=#1A1A1A;fontSize=23;" vertex="1" parent="1">
          <mxGeometry x="240" y="390" width="10" height="10" as="geometry" />
        </mxCell>
        <mxCell id="Zq8NNb_9Jvs74_mtogGU-82" value="" style="ellipse;whiteSpace=wrap;html=1;fillColor=#1A1A1A;fontSize=23;" vertex="1" parent="1">
          <mxGeometry x="320" y="390" width="10" height="10" as="geometry" />
        </mxCell>
        <mxCell id="Zq8NNb_9Jvs74_mtogGU-87" value="" style="endArrow=none;html=1;rounded=0;fontSize=23;exitX=1;exitY=1;exitDx=0;exitDy=0;entryX=0;entryY=0;entryDx=0;entryDy=0;" edge="1" parent="1" source="Zq8NNb_9Jvs74_mtogGU-27" target="Zq8NNb_9Jvs74_mtogGU-74">
          <mxGeometry width="50" height="50" relative="1" as="geometry">
            <mxPoint x="28.535533905932652" y="78.53553390593265" as="sourcePoint" />
            <mxPoint x="231.46446609406735" y="251.46446609406735" as="targetPoint" />
          </mxGeometry>
        </mxCell>
        <mxCell id="Zq8NNb_9Jvs74_mtogGU-88" value="" style="endArrow=none;html=1;rounded=0;fontSize=23;exitX=1;exitY=1;exitDx=0;exitDy=0;entryX=0;entryY=0;entryDx=0;entryDy=0;" edge="1" parent="1" source="Zq8NNb_9Jvs74_mtogGU-27" target="Zq8NNb_9Jvs74_mtogGU-75">
          <mxGeometry width="50" height="50" relative="1" as="geometry">
            <mxPoint x="28.535533905932652" y="78.53553390593265" as="sourcePoint" />
            <mxPoint x="231.46446609406735" y="251.46446609406735" as="targetPoint" />
          </mxGeometry>
        </mxCell>
        <mxCell id="Zq8NNb_9Jvs74_mtogGU-89" value="" style="endArrow=none;html=1;rounded=0;fontSize=23;exitX=1;exitY=1;exitDx=0;exitDy=0;entryX=0.5;entryY=0;entryDx=0;entryDy=0;" edge="1" parent="1" source="Zq8NNb_9Jvs74_mtogGU-27" target="Zq8NNb_9Jvs74_mtogGU-76">
          <mxGeometry width="50" height="50" relative="1" as="geometry">
            <mxPoint x="28.535533905932652" y="78.53553390593265" as="sourcePoint" />
            <mxPoint x="255" y="390" as="targetPoint" />
          </mxGeometry>
        </mxCell>
        <mxCell id="Zq8NNb_9Jvs74_mtogGU-90" value="11" style="text;html=1;strokeColor=none;fillColor=none;align=center;verticalAlign=middle;whiteSpace=wrap;rounded=0;fontSize=23;" vertex="1" parent="1">
          <mxGeometry x="305" y="301" width="20" height="30" as="geometry" />
        </mxCell>
        <mxCell id="Zq8NNb_9Jvs74_mtogGU-91" value="16" style="text;html=1;strokeColor=none;fillColor=none;align=center;verticalAlign=middle;whiteSpace=wrap;rounded=0;fontSize=23;" vertex="1" parent="1">
          <mxGeometry x="282" y="343" width="20" height="30" as="geometry" />
        </mxCell>
        <mxCell id="Zq8NNb_9Jvs74_mtogGU-92" value="24" style="text;html=1;strokeColor=none;fillColor=none;align=center;verticalAlign=middle;whiteSpace=wrap;rounded=0;fontSize=23;" vertex="1" parent="1">
          <mxGeometry x="256" y="375" width="20" height="30" as="geometry" />
        </mxCell>
        <mxCell id="Zq8NNb_9Jvs74_mtogGU-93" value="32" style="text;html=1;strokeColor=none;fillColor=none;align=center;verticalAlign=middle;whiteSpace=wrap;rounded=0;fontSize=23;" vertex="1" parent="1">
          <mxGeometry x="335" y="375" width="20" height="30" as="geometry" />
        </mxCell>
        <mxCell id="Zq8NNb_9Jvs74_mtogGU-96" value="" style="endArrow=none;html=1;rounded=0;fontSize=23;exitX=0.5;exitY=1;exitDx=0;exitDy=0;entryX=0.5;entryY=0;entryDx=0;entryDy=0;" edge="1" parent="1" source="Zq8NNb_9Jvs74_mtogGU-74" target="Zq8NNb_9Jvs74_mtogGU-82">
          <mxGeometry width="50" height="50" relative="1" as="geometry">
            <mxPoint x="238.53553390593265" y="258.53553390593265" as="sourcePoint" />
            <mxPoint x="320" y="370" as="targetPoint" />
          </mxGeometry>
        </mxCell>
        <mxCell id="Zq8NNb_9Jvs74_mtogGU-97" value="" style="ellipse;whiteSpace=wrap;html=1;fillColor=#1A1A1A;fontSize=23;" vertex="1" parent="1">
          <mxGeometry x="460" y="240" width="10" height="10" as="geometry" />
        </mxCell>
        <mxCell id="Zq8NNb_9Jvs74_mtogGU-98" value="" style="ellipse;whiteSpace=wrap;html=1;fillColor=#1A1A1A;fontSize=23;" vertex="1" parent="1">
          <mxGeometry x="450" y="290" width="10" height="10" as="geometry" />
        </mxCell>
        <mxCell id="Zq8NNb_9Jvs74_mtogGU-99" value="" style="ellipse;whiteSpace=wrap;html=1;fillColor=#1A1A1A;fontSize=23;" vertex="1" parent="1">
          <mxGeometry x="420" y="340" width="10" height="10" as="geometry" />
        </mxCell>
        <mxCell id="Zq8NNb_9Jvs74_mtogGU-100" value="" style="ellipse;whiteSpace=wrap;html=1;fillColor=#1A1A1A;fontSize=23;" vertex="1" parent="1">
          <mxGeometry x="390" y="390" width="10" height="10" as="geometry" />
        </mxCell>
        <mxCell id="Zq8NNb_9Jvs74_mtogGU-102" value="" style="endArrow=none;html=1;rounded=0;fontSize=23;exitX=1;exitY=1;exitDx=0;exitDy=0;entryX=0;entryY=0;entryDx=0;entryDy=0;" edge="1" parent="1" source="Zq8NNb_9Jvs74_mtogGU-17" target="Zq8NNb_9Jvs74_mtogGU-97">
          <mxGeometry width="50" height="50" relative="1" as="geometry">
            <mxPoint x="28.535533905932652" y="78.53553390593265" as="sourcePoint" />
            <mxPoint x="340.4072872199429" y="213.0233894364311" as="targetPoint" />
          </mxGeometry>
        </mxCell>
        <mxCell id="Zq8NNb_9Jvs74_mtogGU-103" value="" style="endArrow=none;html=1;rounded=0;fontSize=23;exitX=1;exitY=1;exitDx=0;exitDy=0;entryX=0;entryY=0;entryDx=0;entryDy=0;" edge="1" parent="1" source="Zq8NNb_9Jvs74_mtogGU-17" target="Zq8NNb_9Jvs74_mtogGU-98">
          <mxGeometry width="50" height="50" relative="1" as="geometry">
            <mxPoint x="28.535533905932652" y="78.53553390593265" as="sourcePoint" />
            <mxPoint x="340.4072872199429" y="213.0233894364311" as="targetPoint" />
          </mxGeometry>
        </mxCell>
        <mxCell id="Zq8NNb_9Jvs74_mtogGU-104" value="" style="endArrow=none;html=1;rounded=0;fontSize=23;exitX=1;exitY=1;exitDx=0;exitDy=0;entryX=0;entryY=0;entryDx=0;entryDy=0;" edge="1" parent="1" source="Zq8NNb_9Jvs74_mtogGU-17" target="Zq8NNb_9Jvs74_mtogGU-99">
          <mxGeometry width="50" height="50" relative="1" as="geometry">
            <mxPoint x="28.535533905932652" y="78.53553390593265" as="sourcePoint" />
            <mxPoint x="340.4072872199429" y="213.0233894364311" as="targetPoint" />
          </mxGeometry>
        </mxCell>
        <mxCell id="Zq8NNb_9Jvs74_mtogGU-105" value="" style="endArrow=none;html=1;rounded=0;fontSize=23;exitX=1;exitY=1;exitDx=0;exitDy=0;entryX=0;entryY=0;entryDx=0;entryDy=0;" edge="1" parent="1" source="Zq8NNb_9Jvs74_mtogGU-17" target="Zq8NNb_9Jvs74_mtogGU-100">
          <mxGeometry width="50" height="50" relative="1" as="geometry">
            <mxPoint x="28.535533905932652" y="78.53553390593265" as="sourcePoint" />
            <mxPoint x="340.4072872199429" y="213.0233894364311" as="targetPoint" />
          </mxGeometry>
        </mxCell>
        <mxCell id="Zq8NNb_9Jvs74_mtogGU-115" value="" style="ellipse;whiteSpace=wrap;html=1;fillColor=#1A1A1A;fontSize=23;" vertex="1" parent="1">
          <mxGeometry x="465" y="390" width="10" height="10" as="geometry" />
        </mxCell>
        <mxCell id="Zq8NNb_9Jvs74_mtogGU-116" value="" style="endArrow=none;html=1;rounded=0;fontSize=23;exitX=1;exitY=1;exitDx=0;exitDy=0;entryX=0.5;entryY=0;entryDx=0;entryDy=0;" edge="1" parent="1" source="Zq8NNb_9Jvs74_mtogGU-98" target="Zq8NNb_9Jvs74_mtogGU-115">
          <mxGeometry width="50" height="50" relative="1" as="geometry">
            <mxPoint x="28.535533905932652" y="78.53553390593265" as="sourcePoint" />
            <mxPoint x="340.4072872199429" y="213.0233894364311" as="targetPoint" />
          </mxGeometry>
        </mxCell>
        <mxCell id="Zq8NNb_9Jvs74_mtogGU-117" value="" style="ellipse;whiteSpace=wrap;html=1;fillColor=#1A1A1A;fontSize=23;" vertex="1" parent="1">
          <mxGeometry x="510" y="390" width="10" height="10" as="geometry" />
        </mxCell>
        <mxCell id="Zq8NNb_9Jvs74_mtogGU-118" value="" style="ellipse;whiteSpace=wrap;html=1;fillColor=#1A1A1A;fontSize=23;" vertex="1" parent="1">
          <mxGeometry x="520" y="320" width="10" height="10" as="geometry" />
        </mxCell>
        <mxCell id="Zq8NNb_9Jvs74_mtogGU-119" value="" style="endArrow=none;html=1;rounded=0;fontSize=23;entryX=0;entryY=0;entryDx=0;entryDy=0;exitX=0.5;exitY=1;exitDx=0;exitDy=0;" edge="1" parent="1" source="Zq8NNb_9Jvs74_mtogGU-97" target="Zq8NNb_9Jvs74_mtogGU-117">
          <mxGeometry width="50" height="50" relative="1" as="geometry">
            <mxPoint x="470" y="250" as="sourcePoint" />
            <mxPoint x="340.4072872199429" y="213.0233894364311" as="targetPoint" />
          </mxGeometry>
        </mxCell>
        <mxCell id="Zq8NNb_9Jvs74_mtogGU-120" value="" style="endArrow=none;html=1;rounded=0;fontSize=23;exitX=1;exitY=1;exitDx=0;exitDy=0;entryX=0.5;entryY=0;entryDx=0;entryDy=0;" edge="1" parent="1" source="Zq8NNb_9Jvs74_mtogGU-97" target="Zq8NNb_9Jvs74_mtogGU-118">
          <mxGeometry width="50" height="50" relative="1" as="geometry">
            <mxPoint x="28.535533905932652" y="78.53553390593265" as="sourcePoint" />
            <mxPoint x="340.4072872199429" y="213.0233894364311" as="targetPoint" />
          </mxGeometry>
        </mxCell>
        <mxCell id="Zq8NNb_9Jvs74_mtogGU-121" value="7" style="text;html=1;strokeColor=none;fillColor=none;align=center;verticalAlign=middle;whiteSpace=wrap;rounded=0;fontSize=23;" vertex="1" parent="1">
          <mxGeometry x="467" y="220" width="20" height="30" as="geometry" />
        </mxCell>
        <mxCell id="Zq8NNb_9Jvs74_mtogGU-122" value="20" style="text;html=1;strokeColor=none;fillColor=none;align=center;verticalAlign=middle;whiteSpace=wrap;rounded=0;fontSize=23;" vertex="1" parent="1">
          <mxGeometry x="534" y="302" width="20" height="30" as="geometry" />
        </mxCell>
        <mxCell id="Zq8NNb_9Jvs74_mtogGU-123" value="10" style="text;html=1;strokeColor=none;fillColor=none;align=center;verticalAlign=middle;whiteSpace=wrap;rounded=0;fontSize=23;" vertex="1" parent="1">
          <mxGeometry x="447" y="265" width="20" height="30" as="geometry" />
        </mxCell>
        <mxCell id="Zq8NNb_9Jvs74_mtogGU-124" value="31" style="text;html=1;strokeColor=none;fillColor=none;align=center;verticalAlign=middle;whiteSpace=wrap;rounded=0;fontSize=23;" vertex="1" parent="1">
          <mxGeometry x="480" y="375" width="20" height="30" as="geometry" />
        </mxCell>
        <mxCell id="Zq8NNb_9Jvs74_mtogGU-125" value="28" style="text;html=1;strokeColor=none;fillColor=none;align=center;verticalAlign=middle;whiteSpace=wrap;rounded=0;fontSize=23;" vertex="1" parent="1">
          <mxGeometry x="525" y="375" width="20" height="30" as="geometry" />
        </mxCell>
        <mxCell id="Zq8NNb_9Jvs74_mtogGU-126" value="23" style="text;html=1;strokeColor=none;fillColor=none;align=center;verticalAlign=middle;whiteSpace=wrap;rounded=0;fontSize=23;" vertex="1" parent="1">
          <mxGeometry x="405" y="375" width="20" height="30" as="geometry" />
        </mxCell>
        <mxCell id="Zq8NNb_9Jvs74_mtogGU-127" value="15" style="text;html=1;strokeColor=none;fillColor=none;align=center;verticalAlign=middle;whiteSpace=wrap;rounded=0;fontSize=23;" vertex="1" parent="1">
          <mxGeometry x="420" y="310" width="20" height="30" as="geometry" />
        </mxCell>
        <mxCell id="Zq8NNb_9Jvs74_mtogGU-130" value="" style="ellipse;whiteSpace=wrap;html=1;fillColor=#1A1A1A;fontSize=23;" vertex="1" parent="1">
          <mxGeometry x="570" y="395" width="10" height="10" as="geometry" />
        </mxCell>
        <mxCell id="Zq8NNb_9Jvs74_mtogGU-133" value="" style="ellipse;whiteSpace=wrap;html=1;fillColor=#1A1A1A;fontSize=23;" vertex="1" parent="1">
          <mxGeometry x="600" y="350" width="10" height="10" as="geometry" />
        </mxCell>
        <mxCell id="Zq8NNb_9Jvs74_mtogGU-134" value="22" style="text;html=1;strokeColor=none;fillColor=none;align=center;verticalAlign=middle;whiteSpace=wrap;rounded=0;fontSize=23;" vertex="1" parent="1">
          <mxGeometry x="580" y="375" width="20" height="30" as="geometry" />
        </mxCell>
        <mxCell id="Zq8NNb_9Jvs74_mtogGU-135" value="14" style="text;html=1;strokeColor=none;fillColor=none;align=center;verticalAlign=middle;whiteSpace=wrap;rounded=0;fontSize=23;" vertex="1" parent="1">
          <mxGeometry x="610" y="330" width="20" height="30" as="geometry" />
        </mxCell>
        <mxCell id="Zq8NNb_9Jvs74_mtogGU-136" value="" style="endArrow=none;html=1;rounded=0;fontSize=23;entryX=0.5;entryY=0;entryDx=0;entryDy=0;exitX=0.854;exitY=0.935;exitDx=0;exitDy=0;exitPerimeter=0;" edge="1" parent="1" source="Zq8NNb_9Jvs74_mtogGU-5">
          <mxGeometry width="50" height="50" relative="1" as="geometry">
            <mxPoint x="541.5355339059088" y="128.53553390590875" as="sourcePoint" />
            <mxPoint x="577.9999999999998" y="395" as="targetPoint" />
          </mxGeometry>
        </mxCell>
        <mxCell id="Zq8NNb_9Jvs74_mtogGU-137" value="" style="endArrow=none;html=1;rounded=0;fontSize=23;exitX=1;exitY=1;exitDx=0;exitDy=0;entryX=0.5;entryY=0;entryDx=0;entryDy=0;" edge="1" parent="1" source="Zq8NNb_9Jvs74_mtogGU-5" target="Zq8NNb_9Jvs74_mtogGU-133">
          <mxGeometry width="50" height="50" relative="1" as="geometry">
            <mxPoint x="478.5355339059329" y="258.53553390593277" as="sourcePoint" />
            <mxPoint x="570" y="390" as="targetPoint" />
          </mxGeometry>
        </mxCell>
        <mxCell id="Zq8NNb_9Jvs74_mtogGU-138" value="" style="ellipse;whiteSpace=wrap;html=1;fillColor=#1A1A1A;fontSize=23;" vertex="1" parent="1">
          <mxGeometry x="630" y="280" width="10" height="10" as="geometry" />
        </mxCell>
        <mxCell id="Zq8NNb_9Jvs74_mtogGU-140" value="" style="endArrow=none;html=1;rounded=0;fontSize=23;exitX=1;exitY=1;exitDx=0;exitDy=0;entryX=0;entryY=0;entryDx=0;entryDy=0;" edge="1" parent="1" source="Zq8NNb_9Jvs74_mtogGU-5" target="Zq8NNb_9Jvs74_mtogGU-138">
          <mxGeometry width="50" height="50" relative="1" as="geometry">
            <mxPoint x="478.5355339059329" y="258.53553390593277" as="sourcePoint" />
            <mxPoint x="570" y="390" as="targetPoint" />
          </mxGeometry>
        </mxCell>
        <mxCell id="Zq8NNb_9Jvs74_mtogGU-141" value="9" style="text;html=1;strokeColor=none;fillColor=none;align=center;verticalAlign=middle;whiteSpace=wrap;rounded=0;fontSize=23;" vertex="1" parent="1">
          <mxGeometry x="630" y="250" width="20" height="30" as="geometry" />
        </mxCell>
        <mxCell id="Zq8NNb_9Jvs74_mtogGU-142" value="" style="ellipse;whiteSpace=wrap;html=1;fillColor=#1A1A1A;fontSize=23;" vertex="1" parent="1">
          <mxGeometry x="635" y="390" width="10" height="10" as="geometry" />
        </mxCell>
        <mxCell id="Zq8NNb_9Jvs74_mtogGU-143" value="" style="endArrow=none;html=1;rounded=0;fontSize=23;exitX=0.5;exitY=1;exitDx=0;exitDy=0;entryX=0.5;entryY=0;entryDx=0;entryDy=0;" edge="1" parent="1" source="Zq8NNb_9Jvs74_mtogGU-138" target="Zq8NNb_9Jvs74_mtogGU-142">
          <mxGeometry width="50" height="50" relative="1" as="geometry">
            <mxPoint x="548.5355339059329" y="138.53553390593277" as="sourcePoint" />
            <mxPoint x="641.4644660940673" y="291.4644660940671" as="targetPoint" />
          </mxGeometry>
        </mxCell>
        <mxCell id="Zq8NNb_9Jvs74_mtogGU-144" value="30" style="text;html=1;strokeColor=none;fillColor=none;align=center;verticalAlign=middle;whiteSpace=wrap;rounded=0;fontSize=23;" vertex="1" parent="1">
          <mxGeometry x="650" y="375" width="20" height="30" as="geometry" />
        </mxCell>
        <mxCell id="Zq8NNb_9Jvs74_mtogGU-146" value="" style="ellipse;whiteSpace=wrap;html=1;fillColor=#1A1A1A;fontSize=23;" vertex="1" parent="1">
          <mxGeometry x="690" y="240" width="10" height="10" as="geometry" />
        </mxCell>
        <mxCell id="Zq8NNb_9Jvs74_mtogGU-147" value="6" style="text;html=1;strokeColor=none;fillColor=none;align=center;verticalAlign=middle;whiteSpace=wrap;rounded=0;fontSize=23;" vertex="1" parent="1">
          <mxGeometry x="700" y="220" width="20" height="30" as="geometry" />
        </mxCell>
        <mxCell id="Zq8NNb_9Jvs74_mtogGU-150" value="" style="endArrow=none;html=1;rounded=0;fontSize=23;exitX=1;exitY=1;exitDx=0;exitDy=0;entryX=0;entryY=0;entryDx=0;entryDy=0;" edge="1" parent="1" source="Zq8NNb_9Jvs74_mtogGU-5" target="Zq8NNb_9Jvs74_mtogGU-146">
          <mxGeometry width="50" height="50" relative="1" as="geometry">
            <mxPoint x="478.5355339059329" y="258.53553390593277" as="sourcePoint" />
            <mxPoint x="570" y="390" as="targetPoint" />
          </mxGeometry>
        </mxCell>
        <mxCell id="Zq8NNb_9Jvs74_mtogGU-151" value="" style="ellipse;whiteSpace=wrap;html=1;fillColor=#1A1A1A;fontSize=23;" vertex="1" parent="1">
          <mxGeometry x="680" y="390" width="10" height="10" as="geometry" />
        </mxCell>
        <mxCell id="Zq8NNb_9Jvs74_mtogGU-152" value="27" style="text;html=1;strokeColor=none;fillColor=none;align=center;verticalAlign=middle;whiteSpace=wrap;rounded=0;fontSize=23;" vertex="1" parent="1">
          <mxGeometry x="695" y="375" width="20" height="30" as="geometry" />
        </mxCell>
        <mxCell id="Zq8NNb_9Jvs74_mtogGU-155" value="" style="endArrow=none;html=1;rounded=0;fontSize=23;exitX=0.5;exitY=1;exitDx=0;exitDy=0;entryX=0.5;entryY=0;entryDx=0;entryDy=0;" edge="1" parent="1" source="Zq8NNb_9Jvs74_mtogGU-146" target="Zq8NNb_9Jvs74_mtogGU-151">
          <mxGeometry width="50" height="50" relative="1" as="geometry">
            <mxPoint x="690" y="249.9999999999999" as="sourcePoint" />
            <mxPoint x="700" y="349.9999999999999" as="targetPoint" />
          </mxGeometry>
        </mxCell>
        <mxCell id="Zq8NNb_9Jvs74_mtogGU-157" value="" style="ellipse;whiteSpace=wrap;html=1;fillColor=#1A1A1A;fontSize=23;" vertex="1" parent="1">
          <mxGeometry x="730" y="330" width="10" height="10" as="geometry" />
        </mxCell>
        <mxCell id="Zq8NNb_9Jvs74_mtogGU-159" value="" style="endArrow=none;html=1;rounded=0;fontSize=23;exitX=0.503;exitY=0.023;exitDx=0;exitDy=0;entryX=0;entryY=0;entryDx=0;entryDy=0;exitPerimeter=0;" edge="1" parent="1" source="Zq8NNb_9Jvs74_mtogGU-146" target="Zq8NNb_9Jvs74_mtogGU-157">
          <mxGeometry width="50" height="50" relative="1" as="geometry">
            <mxPoint x="690" y="249.9999999999999" as="sourcePoint" />
            <mxPoint x="700" y="349.9999999999999" as="targetPoint" />
          </mxGeometry>
        </mxCell>
        <mxCell id="Zq8NNb_9Jvs74_mtogGU-160" value="19" style="text;html=1;strokeColor=none;fillColor=none;align=center;verticalAlign=middle;whiteSpace=wrap;rounded=0;fontSize=23;" vertex="1" parent="1">
          <mxGeometry x="740" y="310" width="20" height="30" as="geometry" />
        </mxCell>
        <mxCell id="Zq8NNb_9Jvs74_mtogGU-162" value="" style="ellipse;whiteSpace=wrap;html=1;fillColor=#1A1A1A;fontSize=23;" vertex="1" parent="1">
          <mxGeometry x="800" y="190" width="10" height="10" as="geometry" />
        </mxCell>
        <mxCell id="Zq8NNb_9Jvs74_mtogGU-163" value="" style="endArrow=none;html=1;rounded=0;fontSize=23;exitX=1;exitY=1;exitDx=0;exitDy=0;entryX=0;entryY=0.5;entryDx=0;entryDy=0;" edge="1" parent="1" source="Zq8NNb_9Jvs74_mtogGU-5" target="Zq8NNb_9Jvs74_mtogGU-162">
          <mxGeometry width="50" height="50" relative="1" as="geometry">
            <mxPoint x="478.5355339059329" y="258.53553390593277" as="sourcePoint" />
            <mxPoint x="570" y="390" as="targetPoint" />
          </mxGeometry>
        </mxCell>
        <mxCell id="Zq8NNb_9Jvs74_mtogGU-164" value="4" style="text;html=1;strokeColor=none;fillColor=none;align=center;verticalAlign=middle;whiteSpace=wrap;rounded=0;fontSize=23;" vertex="1" parent="1">
          <mxGeometry x="810" y="160" width="20" height="30" as="geometry" />
        </mxCell>
        <mxCell id="Zq8NNb_9Jvs74_mtogGU-165" value="" style="ellipse;whiteSpace=wrap;html=1;fillColor=#1A1A1A;fontSize=23;" vertex="1" parent="1">
          <mxGeometry x="790" y="390" width="10" height="10" as="geometry" />
        </mxCell>
        <mxCell id="Zq8NNb_9Jvs74_mtogGU-166" value="" style="endArrow=none;html=1;rounded=0;fontSize=23;exitX=0;exitY=1;exitDx=0;exitDy=0;entryX=0.5;entryY=0;entryDx=0;entryDy=0;" edge="1" parent="1" source="Zq8NNb_9Jvs74_mtogGU-162" target="Zq8NNb_9Jvs74_mtogGU-165">
          <mxGeometry width="50" height="50" relative="1" as="geometry">
            <mxPoint x="548.5355339059329" y="138.53553390593254" as="sourcePoint" />
            <mxPoint x="810" y="205" as="targetPoint" />
          </mxGeometry>
        </mxCell>
        <mxCell id="Zq8NNb_9Jvs74_mtogGU-167" value="25" style="text;html=1;strokeColor=none;fillColor=none;align=center;verticalAlign=middle;whiteSpace=wrap;rounded=0;fontSize=23;" vertex="1" parent="1">
          <mxGeometry x="807" y="375" width="20" height="30" as="geometry" />
        </mxCell>
        <mxCell id="Zq8NNb_9Jvs74_mtogGU-168" value="" style="ellipse;whiteSpace=wrap;html=1;fillColor=#1A1A1A;fontSize=23;" vertex="1" parent="1">
          <mxGeometry x="830" y="330" width="10" height="10" as="geometry" />
        </mxCell>
        <mxCell id="Zq8NNb_9Jvs74_mtogGU-169" value="" style="endArrow=none;html=1;rounded=0;fontSize=23;entryX=0.5;entryY=0;entryDx=0;entryDy=0;exitX=0.5;exitY=1;exitDx=0;exitDy=0;" edge="1" parent="1" source="Zq8NNb_9Jvs74_mtogGU-162" target="Zq8NNb_9Jvs74_mtogGU-168">
          <mxGeometry width="50" height="50" relative="1" as="geometry">
            <mxPoint x="810" y="200" as="sourcePoint" />
            <mxPoint x="810" y="205" as="targetPoint" />
          </mxGeometry>
        </mxCell>
        <mxCell id="Zq8NNb_9Jvs74_mtogGU-170" value="" style="ellipse;whiteSpace=wrap;html=1;fillColor=#1A1A1A;fontSize=23;" vertex="1" parent="1">
          <mxGeometry x="880" y="300" width="10" height="10" as="geometry" />
        </mxCell>
        <mxCell id="Zq8NNb_9Jvs74_mtogGU-171" value="" style="endArrow=none;html=1;rounded=0;fontSize=23;exitX=1;exitY=1;exitDx=0;exitDy=0;entryX=0.5;entryY=0;entryDx=0;entryDy=0;" edge="1" parent="1" source="Zq8NNb_9Jvs74_mtogGU-162" target="Zq8NNb_9Jvs74_mtogGU-170">
          <mxGeometry width="50" height="50" relative="1" as="geometry">
            <mxPoint x="548.5355339059329" y="138.53553390593254" as="sourcePoint" />
            <mxPoint x="810" y="205" as="targetPoint" />
          </mxGeometry>
        </mxCell>
        <mxCell id="Zq8NNb_9Jvs74_mtogGU-172" value="17" style="text;html=1;strokeColor=none;fillColor=none;align=center;verticalAlign=middle;whiteSpace=wrap;rounded=0;fontSize=23;" vertex="1" parent="1">
          <mxGeometry x="840" y="314" width="20" height="30" as="geometry" />
        </mxCell>
        <mxCell id="Zq8NNb_9Jvs74_mtogGU-173" value="12" style="text;html=1;strokeColor=none;fillColor=none;align=center;verticalAlign=middle;whiteSpace=wrap;rounded=0;fontSize=23;" vertex="1" parent="1">
          <mxGeometry x="890" y="280" width="20" height="30" as="geometry" />
        </mxCell>
        <mxCell id="Zq8NNb_9Jvs74_mtogGU-174" value="" style="ellipse;whiteSpace=wrap;html=1;fillColor=#1A1A1A;fontSize=23;" vertex="1" parent="1">
          <mxGeometry x="895" y="390" width="10" height="10" as="geometry" />
        </mxCell>
        <mxCell id="Zq8NNb_9Jvs74_mtogGU-175" value="" style="endArrow=none;html=1;rounded=0;fontSize=23;exitX=0.5;exitY=1;exitDx=0;exitDy=0;entryX=0.5;entryY=1;entryDx=0;entryDy=0;" edge="1" parent="1" source="Zq8NNb_9Jvs74_mtogGU-170" target="Zq8NNb_9Jvs74_mtogGU-174">
          <mxGeometry width="50" height="50" relative="1" as="geometry">
            <mxPoint x="818.5355339059329" y="208.53553390593254" as="sourcePoint" />
            <mxPoint x="895" y="310" as="targetPoint" />
          </mxGeometry>
        </mxCell>
        <mxCell id="Zq8NNb_9Jvs74_mtogGU-176" value="33" style="text;html=1;strokeColor=none;fillColor=none;align=center;verticalAlign=middle;whiteSpace=wrap;rounded=0;fontSize=23;" vertex="1" parent="1">
          <mxGeometry x="910" y="375" width="20" height="30" as="geometry" />
        </mxCell>
        <mxCell id="Zq8NNb_9Jvs74_mtogGU-177" value="1" style="text;html=1;strokeColor=none;fillColor=none;align=center;verticalAlign=middle;whiteSpace=wrap;rounded=0;fontSize=23;" vertex="1" parent="1">
          <mxGeometry x="540" y="100" width="20" height="30" as="geometry" />
        </mxCell>
        <mxCell id="Zq8NNb_9Jvs74_mtogGU-178" value="4" style="text;html=1;strokeColor=none;fillColor=none;align=center;verticalAlign=middle;whiteSpace=wrap;rounded=0;fontSize=23;" vertex="1" parent="1">
          <mxGeometry x="810" y="160" width="20" height="30" as="geometry" />
        </mxCell>
        <mxCell id="Zq8NNb_9Jvs74_mtogGU-179" value="12" style="text;html=1;strokeColor=none;fillColor=none;align=center;verticalAlign=middle;whiteSpace=wrap;rounded=0;fontSize=23;" vertex="1" parent="1">
          <mxGeometry x="890" y="280" width="20" height="30" as="geometry" />
        </mxCell>
        <mxCell id="Zq8NNb_9Jvs74_mtogGU-182" value="19" style="text;html=1;strokeColor=none;fillColor=none;align=center;verticalAlign=middle;whiteSpace=wrap;rounded=0;fontSize=23;" vertex="1" parent="1">
          <mxGeometry x="740" y="310" width="20" height="30" as="geometry" />
        </mxCell>
        <mxCell id="Zq8NNb_9Jvs74_mtogGU-186" value="29" style="text;html=1;align=center;verticalAlign=middle;resizable=0;points=[];autosize=1;strokeColor=none;fillColor=none;fontSize=23;" vertex="1" parent="1">
          <mxGeometry x="160" y="375" width="40" height="30" as="geometry" />
        </mxCell>
      </root>
    </mxGraphModel>
  </diagram>
</mxfile>
